<svg xmlns="http://www.w3.org/2000/svg" viewBox="0 0 497 850.03"><defs><style>.a{fill:#b32828;}.b{fill:#d62828;}</style></defs><path class="a" d="M788.5,822c0,79-111.26,143-248.5,143S291.5,901,291.5,822a87.49,87.49,0,0,1,8.87-38C329.28,723.48,425.62,679,540,679s210.72,44.46,239.63,105A87.49,87.49,0,0,1,788.5,822Z" transform="translate(-291.5 -114.98)"/><path class="b" d="M779.63,784C750.72,723.48,654.38,679,540,679S329.28,723.48,300.37,784L536.89,117.78c1.32-3.73,4.9-3.73,6.22,0Z" transform="translate(-291.5 -114.98)"/></svg>